<svg width="93" height="84" viewBox="0 0 93 84" fill="none" xmlns="http://www.w3.org/2000/svg">
<path d="M22.5304 32.3962C21.0923 32.8525 20.6129 32.8525 17.7367 36.0465C15.4357 38.6016 13.2626 47.4536 12.4636 51.5601L12.943 46.541L13.9017 41.0656C14.3811 38.3279 16.011 33.5825 22.5304 31.0273C30.6797 27.8333 30.6797 25.3111 30.6797 23.2705C30.6797 20.9891 29.721 15.9699 28.7623 13.2322C28.2829 11.1029 27.8035 6.29672 29.721 4.10656C32.1179 1.36886 34.5147 0 38.3497 0C42.1847 0 44.5815 1.82514 46.499 4.56284C48.033 6.75301 48.4165 11.255 48.4165 13.2322C48.2567 14.9053 47.7454 18.4339 46.9784 19.1639C46.2114 19.894 45.0609 19.7723 44.5815 19.6202C45.732 19.6202 46.3392 19.316 46.499 19.1639C48.033 16.9738 47.7773 12.776 47.4577 10.9508C47.4577 7.75683 45.5403 2.28142 40.2672 1.36885C36.0487 0.6388 32.757 2.8898 31.6385 4.10656C28.954 6.29672 29.5612 11.1029 30.2004 13.2322C31.1591 15.5137 32.5972 20.9891 32.1179 25.0956C31.6385 29.2022 23.9685 31.9399 22.5304 32.3962Z" fill="white"/>
<path d="M26.3655 60.2295C26.3655 53.8972 24.4487 49.3895 24.0055 48.1955C23.8405 48.9817 22.3911 50.9766 21.5718 52.0164L24.448 42.8907C26.749 49.0962 26.6851 57.0355 26.3655 60.2295Z" fill="white"/>
<path d="M51.7722 61.1421C49.4712 56.0317 51.7722 46.2368 53.2103 41.9781C55.5113 44.5333 57.0453 50.6475 57.5246 53.3852L53.6897 46.0847C52.1557 50.83 51.7722 58.1002 51.7722 61.1421Z" fill="white"/>
<path d="M36.9117 53.3852C40.7466 61.0508 38.5096 66.6175 36.9117 68.4426C41.8971 64.4273 39.6281 55.8188 37.8704 52.0164C29.817 37.4153 34.1952 30.4189 37.391 28.7459C34.3231 29.1109 32.5973 34.6776 32.118 37.4153C31.6386 40.153 32.118 43.8033 36.9117 53.3852Z" fill="white"/>
<path d="M53.2103 31.4836C59.7298 32.2137 62.9575 40.0009 63.7565 43.8033C63.7565 36.8677 59.9215 32.7004 58.004 31.4836C57.3649 31.0273 54.3608 29.6585 51.2928 29.6585C48.2248 29.6585 46.1795 28.898 45.061 28.2896C41.6095 26.8295 42.6641 22.51 43.6229 20.5328C41.7054 23.088 42.1176 25.8163 42.6641 27.377C43.1435 28.7459 46.6908 30.7535 53.2103 31.4836Z" fill="white"/>
<path d="M69.0295 21.4454C71.9057 22.3579 75.2613 26.9208 76.6994 29.6585L78.1375 31.4836C79.6715 24.9131 74.3026 19.6202 71.4263 18.2514C68.7419 17.5213 65.8337 15.0574 64.7151 13.6885C60.4967 26.0995 69.9882 31.9399 75.2613 33.3087C76.4118 28.1984 71.4263 22.8926 69.0295 21.4454Z" fill="#7A9D3E"/>
<path d="M86.7662 15.5137C87.1497 14.0536 86.6064 11.5592 86.2869 10.4945C86.2869 10.8596 84.689 12.1676 83.89 12.776C82.7395 13.141 81.1736 14.449 80.5344 15.0574C78.2334 17.6126 78.6169 20.3807 79.0963 21.4454C79.8633 17.7951 82.2921 15.9699 83.4106 15.5137C81.1096 18.0689 80.5344 20.837 80.5344 21.9016C84.8487 20.5328 86.2869 17.3388 86.7662 15.5137Z" fill="#7A9D3E"/>
<path d="M92.5518 18.8551C92.5409 18.8055 92.5299 18.7563 92.5187 18.7077C92.5576 18.7447 92.5672 18.7946 92.5518 18.8551C93.6292 23.7738 93.1822 33.5935 82.9313 34.6776C83.2508 32.5483 84.8487 27.6508 88.6837 25.0956C86.1271 26.6166 81.0138 30.571 81.0138 34.2213C80.6942 32.5483 80.5344 28.5634 82.4519 26.0082C84.3694 23.453 87.725 21.9016 89.1631 21.4454C90.3117 20.7621 92.4149 19.3911 92.5518 18.8551Z" fill="#7A9D3E"/>
<path d="M65.1945 63.8897C61.8355 67.4308 57.2613 70.5726 52.7309 72.5591C48.2004 74.5457 42.7615 75.1732 37.786 75.2869C32.8104 75.4005 27.8624 74.5428 23.2395 72.7654C18.6165 70.9879 14.4141 68.3273 10.885 64.9437C7.35582 61.5601 4.57279 57.5232 2.70324 53.0759C0.833686 48.6285 -0.08378 43.8626 0.00600773 39.0646C0.0957955 34.2666 1.19098 29.5357 3.22572 25.1563C5.26045 20.7769 8.8102 16.9572 12.4637 13.6985C9.19418 16.6147 6.23183 21.9016 4.79372 26.0082C3.3556 30.1147 3.43595 34.7709 3.3556 39.0646C3.27525 43.3583 4.62547 47.6909 6.29854 51.6708C8.14932 55.2203 10.7435 59.0366 13.9018 62.0646C17.06 65.0926 20.1336 67.4732 24.6764 69.2909C28.2829 70.734 32.9427 72.3465 37.391 72.5591C41.7053 72.7654 45.5403 72.5591 49.8546 71.6466C54.169 70.734 62.1886 67.0586 65.1945 63.8897Z" fill="white"/>
<path d="M78.1376 31.0273C81.0715 35.1599 81.4931 42.2091 81.4931 47.4536C81.4931 51.1038 80.3598 55.5024 78.6155 60.0944C76.8712 64.6863 73.9875 68.9078 70.1588 72.4743C66.33 76.0408 61.645 78.8696 56.4194 80.7701C51.1938 82.6706 45.5489 83.5986 39.865 83.4917C34.1812 83.3848 28.5903 82.2455 23.469 80.1504C18.3478 78.0553 13.815 75.0532 10.1762 71.3462C6.53734 67.6393 3.87688 63.3136 2.37402 58.6605C3.63674 62.5701 12.4702 70.2678 13.9018 71.3462C17.7367 74.2354 20.6244 75.3517 24.9273 77.112C29.2302 78.8723 35.0894 79.3036 39.865 79.3935C44.6407 79.4833 50.1094 78.7088 54.5 77.112C58.8906 75.5152 62.783 72.4966 66 69.5C69.217 66.5034 71.4263 63.4235 73.8232 59.3169C75.7407 55.6667 76.7009 51.5601 77.6582 47.4536C78.6155 43.347 79.1645 33.1307 76.6994 29.6585L78.1376 31.0273Z" fill="#7A9D3E"/>
<ellipse cx="37.8704" cy="34.6776" rx="0.479372" ry="0.456284" fill="white"/>
<ellipse cx="37.1513" cy="36.7309" rx="0.719057" ry="0.684426" fill="white"/>
<ellipse cx="37.2472" cy="38.6473" rx="0.814932" ry="0.775683" fill="white"/>
<ellipse cx="37.391" cy="41.5219" rx="0.958743" ry="0.912568" fill="white"/>
<ellipse cx="38.3497" cy="44.2596" rx="0.958743" ry="0.912568" fill="white"/>
<ellipse cx="39.2126" cy="46.906" rx="0.862869" ry="0.821311" fill="white"/>
<ellipse cx="40.3631" cy="48.9137" rx="1.05462" ry="1.00383" fill="white"/>
<ellipse cx="42.2806" cy="51.6514" rx="1.05462" ry="1.00383" fill="white"/>
<ellipse cx="44.1022" cy="54.2978" rx="0.958743" ry="0.912568" fill="white"/>
<ellipse cx="45.0609" cy="57.0355" rx="0.958743" ry="0.912568" fill="white"/>
<ellipse cx="45.8758" cy="59.6363" rx="0.814932" ry="0.775683" fill="white"/>
<ellipse cx="45.78" cy="62.2828" rx="0.719057" ry="0.684426" fill="white"/>
<ellipse cx="44.5815" cy="64.7923" rx="0.479372" ry="0.456284" fill="white"/>
</svg>
